<?xml version="1.0" encoding="utf-8"?>
<!-- Generator: Adobe Illustrator 24.2.1, SVG Export Plug-In . SVG Version: 6.00 Build 0)  -->
<svg version="1.1" id="Layer_1" xmlns="http://www.w3.org/2000/svg" xmlns:xlink="http://www.w3.org/1999/xlink" x="0px" y="0px"
	 viewBox="0 0 208 60" style="enable-background:new 0 0 208 60;" xml:space="preserve">
<style type="text/css">
	.st0{fill:#D500F9;}
</style>
<g>
	<path class="st0" d="M4.3,17.84h9.01c3.76,0,6.55,0.94,8.37,2.81c1.82,1.87,2.72,4.68,2.72,8.42c0,3.72-0.91,6.52-2.72,8.39
		c-1.81,1.87-4.6,2.81-8.37,2.81H4.3V17.84z M12.67,36.06c2.04,0,3.57-0.57,4.6-1.71c1.03-1.14,1.55-2.9,1.55-5.28
		c0-2.42-0.52-4.2-1.55-5.33c-1.03-1.13-2.57-1.7-4.6-1.7H9.75v14.02H12.67z"/>
	<path class="st0" d="M43.43,33.07H32.2c0.43,2.35,2.01,3.53,4.74,3.53c0.83,0,1.64-0.12,2.44-0.35c0.8-0.24,1.64-0.54,2.54-0.92
		v4.3c-1.84,0.76-3.9,1.14-6.18,1.14c-1.73,0-3.24-0.35-4.54-1.06c-1.3-0.71-2.31-1.72-3.03-3.04c-0.72-1.32-1.08-2.88-1.08-4.67
		c0-2.96,0.73-5.25,2.2-6.88c1.47-1.62,3.56-2.44,6.27-2.44C40.87,22.68,43.5,26.14,43.43,33.07z M32.17,29.87h6.29
		c-0.16-1.21-0.48-2.07-0.96-2.59c-0.48-0.52-1.19-0.77-2.13-0.77C33.57,26.51,32.5,27.63,32.17,29.87z"/>
	<path class="st0" d="M48.2,27.08h-2.49v-3.83h2.52v-0.4c0.02-2.56,0.61-4.33,1.76-5.33c1.15-1,2.73-1.5,4.72-1.5
		c0.36,0,0.75,0.03,1.18,0.1s0.77,0.15,1.04,0.24v4.4c-0.25-0.25-0.49-0.43-0.74-0.55c-0.25-0.12-0.56-0.18-0.94-0.18
		c-0.63,0-1.12,0.17-1.48,0.5c-0.36,0.34-0.54,0.91-0.54,1.71v1.01h3.7v3.83h-3.73v13.18H48.2V27.08z M59.97,17.07h5.18v3.87h-5.18
		V17.07z M60.07,23.49h5.01l0.03,16.77h-5.04V23.49z"/>
	<path class="st0" d="M73.58,23.39c1.79-0.4,3.39-0.6,4.81-0.6c2.4,0,4.2,0.47,5.41,1.41c1.21,0.94,1.82,2.49,1.82,4.64v11.43h-5.01
		V29.84c0-1.95-1.1-2.92-3.29-2.92c-0.49,0-1,0.06-1.51,0.17c-0.52,0.11-0.92,0.25-1.21,0.4v12.77h-5.01V24.7
		C70.45,24.23,71.79,23.79,73.58,23.39z"/>
	<path class="st0" d="M105.45,33.07H94.22c0.43,2.35,2.01,3.53,4.74,3.53c0.83,0,1.64-0.12,2.44-0.35c0.8-0.24,1.64-0.54,2.54-0.92
		v4.3c-1.84,0.76-3.9,1.14-6.18,1.14c-1.73,0-3.24-0.35-4.54-1.06c-1.3-0.71-2.31-1.72-3.03-3.04c-0.72-1.32-1.08-2.88-1.08-4.67
		c0-2.96,0.73-5.25,2.2-6.88c1.47-1.62,3.56-2.44,6.27-2.44C102.89,22.68,105.51,26.14,105.45,33.07z M94.19,29.87h6.29
		c-0.16-1.21-0.48-2.07-0.96-2.59c-0.48-0.52-1.19-0.77-2.13-0.77C95.59,26.51,94.52,27.63,94.19,29.87z"/>
	<path class="st0" d="M114.56,40.26h-5.45V17.84h10.08c2.69,0,4.77,0.6,6.24,1.81c1.47,1.21,2.2,3.04,2.2,5.48
		c0,2.49-0.75,4.4-2.24,5.75c-1.49,1.34-3.56,2.02-6.2,2.02h-4.64V40.26z M118.52,28.7c1.1,0,1.91-0.29,2.44-0.86
		c0.53-0.57,0.79-1.35,0.79-2.34c0-2.29-1.08-3.43-3.23-3.43h-3.97v6.62H118.52z"/>
	<path class="st0" d="M146.66,33.07h-11.23c0.43,2.35,2.01,3.53,4.74,3.53c0.83,0,1.64-0.12,2.44-0.35
		c0.79-0.24,1.64-0.54,2.54-0.92v4.3c-1.84,0.76-3.9,1.14-6.19,1.14c-1.73,0-3.24-0.35-4.54-1.06s-2.31-1.72-3.03-3.04
		c-0.72-1.32-1.08-2.88-1.08-4.67c0-2.96,0.73-5.25,2.2-6.88c1.47-1.62,3.56-2.44,6.27-2.44C144.1,22.68,146.72,26.14,146.66,33.07z
		 M135.4,29.87h6.29c-0.16-1.21-0.48-2.07-0.96-2.59c-0.48-0.52-1.19-0.77-2.13-0.77C136.8,26.51,135.73,27.63,135.4,29.87z"/>
	<path class="st0" d="M166.19,16.26v19.56c0,1.05-0.37,1.95-1.11,2.69s-1.71,1.3-2.92,1.68s-2.5,0.57-3.87,0.57
		c-2.89,0-5.13-0.68-6.71-2.05s-2.37-3.73-2.37-7.09c0-2.82,0.69-5.01,2.07-6.57s3.4-2.34,6.07-2.34c1.59,0,2.88,0.29,3.87,0.87
		v-7.33H166.19z M161.21,27.45c-0.9-0.47-1.77-0.71-2.62-0.71c-1.5,0-2.6,0.38-3.29,1.14c-0.69,0.76-1.04,2.05-1.04,3.87
		c0,1.57,0.33,2.76,0.97,3.58c0.65,0.82,1.74,1.23,3.26,1.23c0.83,0,1.49-0.11,1.98-0.34c0.49-0.22,0.74-0.54,0.74-0.94V27.45z"/>
	<path class="st0" d="M170.62,17.07h5.18v3.87h-5.18V17.07z M170.72,23.49h5.01l0.03,16.77h-5.04V23.49z"/>
	<path class="st0" d="M192.74,24.04c1.52,0.86,2.29,2.42,2.29,4.66l-0.03,8.03c-0.02,1.41-0.73,2.44-2.12,3.08s-3.42,0.96-6.08,0.96
		c-4.97,0-7.46-1.94-7.46-5.82c0-1.63,0.51-2.91,1.53-3.83c1.02-0.92,2.54-1.38,4.55-1.38c0.83,0,1.66,0.11,2.49,0.32
		c0.83,0.21,1.55,0.49,2.15,0.82v-1.08c0-1.95-1.26-2.92-3.76-2.92c-0.96,0-1.96,0.17-2.98,0.52c-1.02,0.35-1.83,0.77-2.44,1.26
		v-4.44c0.6-0.4,1.53-0.75,2.77-1.04c1.24-0.29,2.58-0.44,4.02-0.44C189.53,22.75,191.22,23.18,192.74,24.04z M189.38,37
		c0.45-0.16,0.67-0.47,0.67-0.94v-2.62c-0.79-0.27-1.65-0.4-2.59-0.4c-1.1,0-1.9,0.16-2.4,0.49c-0.5,0.32-0.76,0.83-0.76,1.53
		c0,0.65,0.26,1.18,0.79,1.58c0.53,0.4,1.15,0.6,1.87,0.6C188.13,37.24,188.93,37.16,189.38,37z"/>
	<path class="st0" d="M199.23,35.52h4.87v4.74h-4.87V35.52z"/>
</g>
</svg>
